<svg width="126" height="30" viewBox="0 0 126 30" fill="none" xmlns="http://www.w3.org/2000/svg">
    <g clip-path="url(#clip0_382_2937)">
        <path d="M15.3949 0H0.607533C0.446406 0 0.291877 0.0638786 0.177943 0.177583C0.0640079 0.291287 0 0.445503 0 0.606306V29.3937C0 29.5545 0.0640079 29.7087 0.177943 29.8224C0.291877 29.9361 0.446406 30 0.607533 30H15.3949C19.3056 29.889 23.0189 28.2606 25.7457 25.4608C28.4725 22.661 29.998 18.9105 29.998 15.0061C29.998 11.1017 28.4725 7.35112 25.7457 4.55132C23.0189 1.75152 19.3056 0.123127 15.3949 0.0121264V0ZM16.8408 25.477C14.6035 25.8612 12.3016 25.5248 10.2686 24.5165C8.23559 23.5082 6.57692 21.8803 5.53277 19.8684C4.48862 17.8566 4.1132 15.5654 4.46086 13.3264C4.80852 11.0875 5.86122 9.01712 7.46653 7.41506C9.07183 5.813 11.1464 4.76242 13.3899 4.41547C15.6334 4.06851 17.9293 4.44317 19.9451 5.48521C21.961 6.52725 23.5922 8.18257 24.6026 10.2115C25.613 12.2404 25.95 14.5376 25.565 16.7704C25.1903 18.9433 24.1503 20.947 22.5881 22.5061C21.0259 24.0652 19.0181 25.103 16.8408 25.477" fill="#1E2B3C"/>
    </g>
    <path d="M44.9372 3.58436L51.0964 21.6081H51.345L57.5042 3.58436H61.1132L53.1495 25.7142H49.2919L41.3282 3.58436H44.9372ZM67.2157 26.0816C64.0605 26.0816 61.6076 24.2879 61.6076 21.0246C61.6076 17.2534 64.8276 16.4322 67.9721 16.0648C70.9544 15.7191 72.1647 15.7407 72.1647 14.5629V14.4872C72.1647 12.607 71.0949 11.5157 69.0094 11.5157C66.8375 11.5157 65.6273 12.6503 65.1518 13.8281L62.1154 13.1365C63.196 10.1109 65.9622 8.90072 68.9662 8.90072C71.6028 8.90072 75.4063 9.86242 75.4063 14.6925V25.7142H72.2511V23.4451H72.1214C71.5055 24.6877 69.9603 26.0816 67.2157 26.0816ZM67.9181 23.4883C70.6086 23.4883 72.1755 21.6945 72.1755 19.7279V17.5884C71.7108 18.0531 69.2255 18.334 68.1774 18.4745C66.308 18.723 64.7736 19.3389 64.7736 21.0678C64.7736 22.6671 66.0919 23.4883 67.9181 23.4883ZM79.7097 25.7142V9.11683H82.8325V11.7534H83.0054C83.6105 9.97047 85.2745 8.8683 87.2196 8.8683C87.6302 8.8683 88.2677 8.90072 88.5919 8.94394V12.0343C88.3325 11.9587 87.5761 11.8398 86.9062 11.8398C84.6154 11.8398 82.9405 13.4067 82.9405 15.5786V25.7142H79.7097ZM97.0067 26.0384C92.9762 26.0384 90.0695 22.8183 90.0695 17.4479C90.0695 12.0668 93.0195 8.90072 97.0283 8.90072C100.119 8.90072 101.221 10.7809 101.804 11.8074H101.999V3.58436H105.23V25.7142H102.075V23.1317H101.804C101.221 24.1906 100.032 26.0384 97.0067 26.0384ZM97.7199 23.283C100.508 23.283 102.053 20.9057 102.053 17.4155C102.053 13.9469 100.54 11.6453 97.7199 11.6453C94.8024 11.6453 93.3328 14.1198 93.3328 17.4155C93.3328 20.7437 94.8348 23.283 97.7199 23.283ZM116.994 26.0492C112.099 26.0492 109.095 22.6779 109.095 17.5236C109.095 12.4233 112.143 8.90072 116.767 8.90072C120.528 8.90072 124.115 11.2455 124.115 17.2426V18.388H112.316C112.402 21.5865 114.261 23.3802 117.027 23.3802C118.864 23.3802 120.268 22.5806 120.852 21.0138L123.91 21.5649C123.175 24.2663 120.614 26.0492 116.994 26.0492ZM112.326 15.9676H120.949C120.938 13.4283 119.296 11.5697 116.789 11.5697C114.163 11.5697 112.456 13.612 112.326 15.9676Z" fill="#1E2B3C"/>
    <defs>
        <clipPath id="clip0_382_2937">
            <rect width="30" height="30" fill="white"/>
        </clipPath>
    </defs>
</svg>
